<?xml version="1.0" encoding="UTF-8"?><!DOCTYPE svg PUBLIC "-//W3C//DTD SVG 1.1//EN" "http://www.w3.org/Graphics/SVG/1.1/DTD/svg11.dtd"><svg xmlns="http://www.w3.org/2000/svg"><symbol id="svg-GitHub-Mark" viewBox="0 0 31.999999 32.000001"><path d="M15.99.02C7.16.02 0 7.18 0 16.012c0 7.064 4.58 13.057 10.937 15.172.8.146 1.09-.348 1.09-.77 0-.38-.013-1.386-.02-2.72-4.448.965-5.387-2.145-5.387-2.145-.727-1.848-1.776-2.34-1.776-2.34-1.45-.992.11-.972.11-.972 1.605.113 2.45 1.648 2.45 1.648 1.426 2.444 3.742 1.74 4.654 1.33.145-1.034.558-1.74 1.015-2.138-3.55-.404-7.284-1.776-7.284-7.904 0-1.745.622-3.172 1.645-4.29-.164-.405-.714-2.03.157-4.232 0 0 1.343-.43 4.397 1.64 1.274-.355 2.642-.533 4.002-.54 1.358.007 2.726.185 4.003.54 3.053-2.07 4.393-1.64 4.393-1.64.873 2.2.324 3.827.16 4.23 1.024 1.12 1.642 2.547 1.642 4.292 0 6.143-3.74 7.495-7.3 7.89.573.495 1.085 1.47 1.085 2.962 0 2.138-.02 3.863-.02 4.387 0 .428.288.925 1.1.77 6.348-2.12 10.925-8.11 10.925-15.17C31.982 7.178 24.822.02 15.99.02z" fill="#191717" fill-rule="evenodd"/></symbol><symbol id="svg-Google_plus" viewBox="0 0 134.658 131.646"><path fill="#DC4A38" d="M126.515 4.11H8.145c-2.178 0-3.94 1.762-3.94 3.937v115.546c0 2.18 1.762 3.942 3.94 3.942h118.37c2.177 0 3.94-1.764 3.94-3.942V8.048c0-2.176-1.764-3.94-3.94-3.94z"/><g fill="#fff"><path d="M70.48 71.845l-3.984-3.093c-1.213-1.006-2.872-2.334-2.872-4.765 0-2.44 1.66-3.993 3.1-5.43 4.64-3.652 9.275-7.54 9.275-15.73 0-8.423-5.3-12.854-7.84-14.956h6.848l7.19-4.516h-21.78c-5.976 0-14.588 1.414-20.893 6.62-4.752 4.1-7.07 9.752-7.07 14.84 0 8.64 6.633 17.397 18.346 17.397 1.107 0 2.317-.108 3.535-.22-.547 1.33-1.1 2.438-1.1 4.32 0 3.43 1.763 5.534 3.317 7.527-4.977.342-14.268.893-21.117 5.103-6.523 3.88-8.508 9.525-8.508 13.51 0 8.202 7.73 15.842 23.762 15.842 19.01 0 29.073-10.52 29.073-20.932 0-7.65-4.42-11.417-9.284-15.515zM56 59.107c-9.51 0-13.818-12.294-13.818-19.712 0-2.888.547-5.87 2.428-8.2 1.773-2.217 4.86-3.656 7.744-3.656 9.168 0 13.923 12.403 13.923 20.38 0 1.997-.22 5.534-2.762 8.09-1.778 1.775-4.753 3.097-7.515 3.097zm.11 44.543c-11.827 0-19.453-5.657-19.453-13.523 0-7.864 7.07-10.524 9.504-11.405 4.64-1.56 10.612-1.78 11.608-1.78 1.105 0 1.658 0 2.538.112 8.407 5.983 12.056 8.965 12.056 14.63 0 6.858-5.64 11.966-16.253 11.966zM98.393 58.938V47.863h-5.47v11.075H81.866v5.53h11.057v11.144h5.47V64.47h11.113v-5.532z"/></g></symbol><symbol id="svg-twitter" viewBox="0 0 300 300"><path fill="#2CAAE1" d="M0 0h300v300H0z"/><path fill="#fff" d="M250 87.974c-7.358 3.264-15.267 5.47-23.566 6.46 8.47-5.077 14.978-13.118 18.04-22.7-7.928 4.703-16.71 8.117-26.056 9.957-7.484-7.974-18.148-12.956-29.95-12.956-22.66 0-41.033 18.37-41.033 41.03 0 3.217.363 6.35 1.062 9.352-34.102-1.71-64.336-18.047-84.574-42.872-3.532 6.06-5.556 13.108-5.556 20.628 0 14.236 7.244 26.795 18.254 34.153-6.725-.213-13.052-2.06-18.584-5.132-.004.17-.004.343-.004.516 0 19.88 14.144 36.463 32.915 40.233-3.443.938-7.068 1.44-10.81 1.44-2.644 0-5.214-.26-7.72-.737 5.222 16.3 20.375 28.165 38.33 28.495-14.042 11.007-31.734 17.566-50.96 17.566-3.31 0-6.577-.194-9.787-.574 18.16 11.643 39.727 18.437 62.9 18.437 75.472 0 116.745-62.525 116.745-116.748 0-1.78-.04-3.548-.12-5.31 8.018-5.783 14.974-13.01 20.475-21.238z"/></symbol></svg>