<?xml version="1.0" encoding="UTF-8" standalone="no"?>
<!-- Created with Inkscape (http://www.inkscape.org/) -->

<svg
   xmlns:dc="http://purl.org/dc/elements/1.1/"
   xmlns:cc="http://creativecommons.org/ns#"
   xmlns:rdf="http://www.w3.org/1999/02/22-rdf-syntax-ns#"
   xmlns:svg="http://www.w3.org/2000/svg"
   xmlns="http://www.w3.org/2000/svg"
   xmlns:xlink="http://www.w3.org/1999/xlink"
   version="1.1"
   width="64"
   height="64"
   id="svg2">
  <defs
     id="defs4">
    <linearGradient
       id="linearGradient3900">
      <stop
         id="stop3902"
         style="stop-color:#ffffff;stop-opacity:0"
         offset="0" />
      <stop
         id="stop3904"
         style="stop-color:#ffffff;stop-opacity:1"
         offset="1" />
    </linearGradient>
    <linearGradient
       id="linearGradient3841">
      <stop
         id="stop3843"
         style="stop-color:#ff7f43;stop-opacity:1"
         offset="0" />
      <stop
         id="stop3845"
         style="stop-color:#d0438e;stop-opacity:1"
         offset="1" />
    </linearGradient>
    <linearGradient
       id="linearGradient3833">
      <stop
         id="stop3835"
         style="stop-color:#ffdd9e;stop-opacity:1"
         offset="0" />
      <stop
         id="stop3837"
         style="stop-color:#ffa512;stop-opacity:1"
         offset="1" />
    </linearGradient>
    <linearGradient
       id="linearGradient3825">
      <stop
         id="stop3827"
         style="stop-color:#255db5;stop-opacity:1"
         offset="0" />
      <stop
         id="stop3829"
         style="stop-color:#769ce6;stop-opacity:1"
         offset="1" />
    </linearGradient>
    <linearGradient
       x1="287"
       y1="1043.375"
       x2="286"
       y2="1014.3224"
       id="linearGradient3831"
       xlink:href="#linearGradient3825"
       gradientUnits="userSpaceOnUse" />
    <linearGradient
       x1="29.231287"
       y1="1005.0114"
       x2="29.231287"
       y2="1024.6074"
       id="linearGradient3839"
       xlink:href="#linearGradient3833"
       gradientUnits="userSpaceOnUse" />
    <radialGradient
       cx="297"
       cy="1020.3622"
       r="32"
       fx="297"
       fy="1020.3622"
       id="radialGradient3847"
       xlink:href="#linearGradient3841"
       gradientUnits="userSpaceOnUse" />
    <linearGradient
       x1="295.81482"
       y1="1008.5104"
       x2="295.81482"
       y2="970.35681"
       id="linearGradient3908"
       xlink:href="#linearGradient3900"
       gradientUnits="userSpaceOnUse"
       gradientTransform="matrix(0.90625,0,0,0.90625,27.84375,95.658954)" />
    <radialGradient
       cx="297"
       cy="1020.3622"
       r="32"
       fx="297"
       fy="1020.3622"
       id="radialGradient3918"
       xlink:href="#linearGradient3841"
       gradientUnits="userSpaceOnUse"
       gradientTransform="translate(-265,0)" />
    <linearGradient
       x1="287"
       y1="1043.375"
       x2="286"
       y2="1014.3224"
       id="linearGradient3920"
       xlink:href="#linearGradient3825"
       gradientUnits="userSpaceOnUse"
       gradientTransform="translate(-265,0)" />
    <linearGradient
       x1="29.231287"
       y1="1005.0114"
       x2="29.231287"
       y2="1024.6074"
       id="linearGradient3922"
       xlink:href="#linearGradient3833"
       gradientUnits="userSpaceOnUse" />
    <linearGradient
       x1="295.81482"
       y1="1008.5104"
       x2="295.81482"
       y2="970.35681"
       id="linearGradient3924"
       xlink:href="#linearGradient3900"
       gradientUnits="userSpaceOnUse"
       gradientTransform="matrix(0.90625,0,0,0.90625,-237.15625,95.658954)" />
    <linearGradient
       x1="295.81482"
       y1="1008.5104"
       x2="295.81482"
       y2="970.35681"
       id="linearGradient3062"
       xlink:href="#linearGradient3900"
       gradientUnits="userSpaceOnUse"
       gradientTransform="matrix(0.90625,0,0,0.90606854,-237.15625,-892.52448)" />
    <linearGradient
       x1="29.231287"
       y1="1005.0114"
       x2="29.231287"
       y2="1024.6074"
       id="linearGradient3065"
       xlink:href="#linearGradient3833"
       gradientUnits="userSpaceOnUse"
       gradientTransform="matrix(1.0218834,0,0,1.0216788,0.12903,-1014.8012)" />
    <linearGradient
       x1="287"
       y1="1043.375"
       x2="286"
       y2="1014.3224"
       id="linearGradient3068"
       xlink:href="#linearGradient3825"
       gradientUnits="userSpaceOnUse"
       gradientTransform="translate(-265,-988.37499)" />
    <radialGradient
       cx="297"
       cy="1020.3622"
       r="32"
       fx="297"
       fy="1020.3622"
       id="radialGradient3071"
       xlink:href="#linearGradient3841"
       gradientUnits="userSpaceOnUse"
       gradientTransform="matrix(1,0,0,0.99979977,-265,-988.16428)" />
  </defs>
  <metadata
     id="metadata7">
    <rdf:RDF>
      <cc:Work
         rdf:about="">
        <dc:format>image/svg+xml</dc:format>
        <dc:type
           rdf:resource="http://purl.org/dc/dcmitype/StillImage" />
        <dc:title></dc:title>
      </cc:Work>
    </rdf:RDF>
  </metadata>
  <g
     id="g3073">
    <rect
       width="64"
       height="63.987186"
       ry="8.9981976"
       x="0"
       y="2.8573622e-06"
       id="rect3910"
       style="fill:url(#radialGradient3071);fill-opacity:1;stroke:none" />
    <path
       d="m 0,32.000003 0,22.9872 c 0,7.8789 6.74913,9.0128 9,9.0128 l 23,0 23,0 c 1.69788,0 9,-1.0126 9,-9.0128 l 0,-22.9872 -23.0625,0 c -2.50092,1.8671 -5.57647,3.000001 -8.9375,3.000001 -3.36103,0 -6.43658,-1.132901 -8.9375,-3.000001 z m 24,10.125 c 0,0 3.89945,1.9688 7.8125,1.9688 3.91304,0 7.1875,-1.9688 7.1875,-1.9688 0,0 -2.62229,3.25 -7.1875,3.25 -4.56522,0 -7.8125,-3.25 -7.8125,-3.25 z m -3,3.1562 c 0,0 5.49049,2.75 10.96875,2.75 5.47826,0 10.03125,-2.75 10.03125,-2.75 0,0 -3.63994,4.5626 -10.03125,4.5626 -6.3913,0 -10.96875,-4.5626 -10.96875,-4.5626 z m -3,3.75 c 0,2e-4 7.05027,3.5313 14.09375,3.5313 7.04347,0 12.90625,-3.5313 12.90625,-3.5313 0,0 -4.68886,5.875 -12.90625,5.875 -8.2174,0 -14.09375,-5.875 -14.09375,-5.875 z m -2.59375,3.9688 c 0,0 8.38121,4.1875 16.78125,4.1875 8.40005,0 15.40625,-4.1875 15.40625,-4.1875 0,0 -5.6062,7 -15.40625,7 -9.80005,0 -16.78125,-7 -16.78125,-7 z"
       id="path3912"
       style="fill:url(#linearGradient3068);fill-opacity:1;stroke:none" />
    <path
       d="m 43.999999,19.995956 a 12.000001,11.997598 0 0 1 -24.000001,0 12.000001,11.997598 0 1 1 24.000001,0 z"
       id="path3914"
       style="fill:url(#linearGradient3065);fill-opacity:1;stroke:none" />
    <rect
       width="58"
       height="57.988388"
       ry="8.1546173"
       x="3"
       y="2.9994023"
       id="rect3916"
       style="fill:url(#linearGradient3062);fill-opacity:1;stroke:none" />
  </g>
</svg>
